<svg width="127" height="44" viewBox="0 0 127 44" fill="none" xmlns="http://www.w3.org/2000/svg">
<g clip-path="url(#clip0_4022_1513)">
<path d="M21.4327 1.92676H125.099V22.0003C125.099 33.0866 116.354 42.0738 105.567 42.0738H1.90143V22.0003C1.90143 10.914 10.6458 1.92676 21.4327 1.92676Z" fill="white" stroke="#0A3F61" stroke-width="3"/>
<path d="M1 22C1 10.402 10.148 1 21.4327 1H64.101V43H1V22Z" fill="#0A3F61"/>
<path d="M62.2981 22.0004C62.2981 23.0238 63.1052 23.8533 64.1009 23.8533V20.1475C63.1052 20.1475 62.2981 20.977 62.2981 22.0004Z" fill="#EF1726"/>
<path d="M64.101 23.8533C65.0967 23.8533 65.9038 23.0238 65.9038 22.0004C65.9038 20.977 65.0967 20.1475 64.101 20.1475V23.8533Z" fill="#0A3F61"/>
<path d="M102.562 31.2648V12.7354H109.259C111.763 12.7354 113.872 13.6266 115.588 15.4089C117.321 17.1736 118.188 19.3707 118.188 22.0001C118.188 24.6294 117.321 26.8354 115.588 28.6177C113.872 30.3824 111.763 31.2648 109.259 31.2648H102.562ZM105.977 27.956H109.259C110.852 27.956 112.165 27.4089 113.198 26.3148C114.248 25.2207 114.773 23.7824 114.773 22.0001C114.773 20.2177 114.248 18.7795 113.198 17.6854C112.165 16.5913 110.852 16.0441 109.259 16.0441H105.977V27.956Z" fill="#0A3F61"/>
<path d="M84.5337 31.2648V12.7354H88.1064V25.2705H88.5319L95.3714 12.7354H100.159V31.2648H96.6022V18.4331H96.0553L89.2043 31.2648H84.5337Z" fill="#0A3F61"/>
<path d="M82.1298 12.7354V31.2648H78.524V18.2942L70.1106 31.2648H65.9038L77.9231 12.7354H82.1298Z" fill="#0A3F61"/>
<path d="M50.2789 29.4114C54.2617 29.4114 57.4904 26.0931 57.4904 21.9997C57.4904 17.9063 54.2617 14.5879 50.2789 14.5879C46.296 14.5879 43.0673 17.9063 43.0673 21.9997C43.0673 26.0931 46.296 29.4114 50.2789 29.4114Z" stroke="white" stroke-width="4"/>
<path d="M26.8413 31.2648V12.7354H38.8606V15.9118H30.1658V20.4118H38.3491V23.5883H30.1658V28.0883H38.8606V31.2648H26.8413Z" fill="white"/>
<path d="M8.8125 31.2648V12.7354H13.5269L20.3966 25.2705H20.9353V12.7354H24.4375V31.2648H19.7231L12.8534 18.4331H12.3147V31.2648H8.8125Z" fill="white"/>
</g>
<defs>
<clipPath id="clip0_4022_1513">
<rect width="127" height="44" fill="white"/>
</clipPath>
</defs>
</svg>
