<svg width="29" height="30" viewBox="0 0 29 30" fill="none" xmlns="http://www.w3.org/2000/svg">
<path d="M9.57757 17.4816C8.1628 18.324 4.45336 20.0441 6.71266 22.1966C7.81631 23.248 9.04549 24 10.5909 24H19.4091C20.9545 24 22.1837 23.248 23.2873 22.1966C25.5466 20.0441 21.8372 18.324 20.4224 17.4816C17.1048 15.5061 12.8952 15.5061 9.57757 17.4816Z" stroke="white" stroke-width="1.5" stroke-linecap="round" stroke-linejoin="round"/>
<path d="M19.5 8.5C19.5 10.9853 17.4853 13 15 13C12.5147 13 10.5 10.9853 10.5 8.5C10.5 6.01472 12.5147 4 15 4C17.4853 4 19.5 6.01472 19.5 8.5Z" stroke="white" stroke-width="1.5"/>
</svg>
