<svg width="29" height="30" viewBox="0 0 29 30" fill="none" xmlns="http://www.w3.org/2000/svg">
<path d="M6.51035 17.7075L5.01037 8.49822C4.93423 8.03056 5.28718 7.60462 5.75014 7.60462H22.6638L22.8791 5.09383C22.9852 3.90016 23.9486 3 25.1198 3H27.25C27.6642 2.99995 28 3.3436 28 3.76742C28 4.19123 27.6642 4.53487 27.25 4.53487H25.1198C24.7293 4.53487 24.4082 4.83495 24.373 5.23044L23.1209 19.8364C23.0148 21.03 22.0515 21.9302 20.8802 21.9302H19.871C19.9542 22.1704 20 22.4286 20 22.6977C20 23.9672 18.9906 25 17.75 25C16.5093 25 15.5 23.9672 15.5 22.6977C15.5 22.4287 15.5457 22.1704 15.629 21.9302H12.371C12.4543 22.1704 12.5 22.4286 12.5 22.6977C12.5 23.9672 11.4907 25 10.25 25C9.0094 25 8.00005 23.9672 8.00005 22.6977C8.00005 22.4287 8.04578 22.1704 8.12906 21.9302H7.25012C6.83594 21.9302 6.50011 21.5866 6.50011 21.1628C6.50011 20.739 6.8359 20.3953 7.25012 20.3953H20.8803C21.2708 20.3953 21.5918 20.0953 21.627 19.6998L21.7428 18.3488H7.25017C6.88352 18.3487 6.57064 18.0775 6.51035 17.7075ZM10.2501 21.9302C9.83658 21.9302 9.50012 22.2744 9.50012 22.6976C9.50012 23.1208 9.83658 23.4651 10.2501 23.4651C10.6637 23.4651 11.0001 23.1208 11.0001 22.6976C11.0001 22.2744 10.6637 21.9302 10.2501 21.9302ZM17.7501 21.9302C17.3366 21.9302 17.0001 22.2744 17.0001 22.6976C17.0001 23.1208 17.3366 23.4651 17.7501 23.4651C18.1636 23.4651 18.5001 23.1208 18.5001 22.6976C18.5001 22.2744 18.1636 21.9302 17.7501 21.9302ZM11.0001 9.1395H6.63555L7.13553 12.2092H11.0001V9.1395ZM18.5001 16.8139H21.8743L22.1375 13.7441H18.5001V16.8139ZM18.5001 12.2092H22.2691L22.5323 9.1395H18.5001V12.2092ZM12.5001 16.8139H17.0001V13.7441H12.5001V16.8139ZM12.5001 12.2092H17.0001V9.1395H12.5001V12.2092ZM7.8855 16.8139H11.0001V13.7441H7.38547L7.8855 16.8139Z" fill="white"/>
</svg>
