<svg width="11" height="7" viewBox="0 0 11 7" fill="none" xmlns="http://www.w3.org/2000/svg">
<g clip-path="url(#clip0_2341_11588)">
<path d="M0.284143 1.91713L4.77096 6.66853C4.86819 6.77356 4.98386 6.85693 5.11131 6.91382C5.23876 6.97071 5.37547 7 5.51353 7C5.6516 7 5.7883 6.97071 5.91575 6.91382C6.0432 6.85693 6.15888 6.77356 6.25611 6.66853L10.6906 1.91713C10.7887 1.81296 10.8665 1.68902 10.9196 1.55246C10.9727 1.4159 11 1.26943 11 1.1215C11 0.973566 10.9727 0.827096 10.9196 0.690538C10.8665 0.553982 10.7887 0.430041 10.6906 0.325865C10.4947 0.117151 10.2296 -2.4155e-08 9.95329 0C9.67698 2.4156e-08 9.4119 0.117151 9.21594 0.325865L5.51353 4.29283L1.81113 0.325866C1.61632 0.11884 1.35339 0.00212697 1.07901 0.000889123C0.941366 3.65507e-05 0.804918 0.0283035 0.677491 0.0840701C0.550063 0.139837 0.434163 0.222007 0.336436 0.325866C0.234908 0.426293 0.152959 0.547281 0.0953237 0.681839C0.0376884 0.816397 0.00551042 0.961858 0.000647648 1.10982C-0.00421418 1.25778 0.0183355 1.4053 0.0669948 1.54387C0.115654 1.68244 0.189458 1.8093 0.284143 1.91713Z" fill="#0A3F61"/>
</g>
<defs>
<clipPath id="clip0_2341_11588">
<rect width="11" height="7" fill="white"/>
</clipPath>
</defs>
</svg>
