<svg width="11" height="10" viewBox="0 0 11 10" fill="none" xmlns="http://www.w3.org/2000/svg">
<path d="M7.90625 0.668114C7.77082 0.668114 7.63672 0.693971 7.51161 0.744209C7.38649 0.794447 7.27281 0.868082 7.17705 0.96091C7.08129 1.05374 7.00532 1.16394 6.9535 1.28522C6.90167 1.40651 6.875 1.5365 6.875 1.66778C6.875 1.79906 6.90167 1.92905 6.9535 2.05034C7.00532 2.17162 7.08129 2.28182 7.17705 2.37465C7.27281 2.46748 7.38649 2.54111 7.51161 2.59135C7.63672 2.64159 7.77082 2.66745 7.90625 2.66745C8.17975 2.66745 8.44206 2.56212 8.63545 2.37465C8.82885 2.18718 8.9375 1.93291 8.9375 1.66778C8.9375 1.40265 8.82885 1.14838 8.63545 0.96091C8.44206 0.773436 8.17975 0.668114 7.90625 0.668114ZM6.22188 1.33456C6.30077 0.957921 6.51156 0.619306 6.81854 0.376086C7.12551 0.132866 7.50978 0 7.90625 0C8.30272 0 8.68699 0.132866 8.99396 0.376086C9.30094 0.619306 9.51173 0.957921 9.59062 1.33456H11V2.001H9.59062C9.51173 2.37764 9.30094 2.71625 8.99396 2.95947C8.68699 3.20269 8.30272 3.33556 7.90625 3.33556C7.50978 3.33556 7.12551 3.20269 6.81854 2.95947C6.51156 2.71625 6.30077 2.37764 6.22188 2.001H0V1.33456H6.22188ZM3.09375 4.00033C2.82025 4.00033 2.55794 4.10566 2.36455 4.29313C2.17115 4.4806 2.0625 4.73487 2.0625 5C2.0625 5.26513 2.17115 5.5194 2.36455 5.70687C2.55794 5.89434 2.82025 5.99967 3.09375 5.99967C3.36725 5.99967 3.62956 5.89434 3.82295 5.70687C4.01635 5.5194 4.125 5.26513 4.125 5C4.125 4.73487 4.01635 4.4806 3.82295 4.29313C3.62956 4.10566 3.36725 4.00033 3.09375 4.00033ZM1.40937 4.66678C1.48827 4.29014 1.69906 3.95153 2.00604 3.70831C2.31301 3.46509 2.69728 3.33222 3.09375 3.33222C3.49022 3.33222 3.87449 3.46509 4.18146 3.70831C4.48844 3.95153 4.69923 4.29014 4.77812 4.66678H11V5.33322H4.77812C4.69923 5.70986 4.48844 6.04847 4.18146 6.29169C3.87449 6.53491 3.49022 6.66778 3.09375 6.66778C2.69728 6.66778 2.31301 6.53491 2.00604 6.29169C1.69906 6.04847 1.48827 5.70986 1.40937 5.33322H0V4.66678H1.40937ZM7.90625 7.33255C7.63275 7.33255 7.37044 7.43788 7.17705 7.62535C6.98365 7.81282 6.875 8.06709 6.875 8.33222C6.875 8.59735 6.98365 8.85162 7.17705 9.03909C7.37044 9.22656 7.63275 9.33189 7.90625 9.33189C8.17975 9.33189 8.44206 9.22656 8.63545 9.03909C8.82885 8.85162 8.9375 8.59735 8.9375 8.33222C8.9375 8.06709 8.82885 7.81282 8.63545 7.62535C8.44206 7.43788 8.17975 7.33255 7.90625 7.33255ZM6.22188 7.999C6.30077 7.62236 6.51156 7.28375 6.81854 7.04053C7.12551 6.79731 7.50978 6.66444 7.90625 6.66444C8.30272 6.66444 8.68699 6.79731 8.99396 7.04053C9.30094 7.28375 9.51173 7.62236 9.59062 7.999H11V8.66544H9.59062C9.51173 9.04208 9.30094 9.38069 8.99396 9.62391C8.68699 9.86713 8.30272 10 7.90625 10C7.50978 10 7.12551 9.86713 6.81854 9.62391C6.51156 9.38069 6.30077 9.04208 6.22188 8.66544H0V7.999H6.22188Z" fill="#CE1F18"/>
</svg>
