<svg width="19" height="20" viewBox="0 0 19 20" fill="none" xmlns="http://www.w3.org/2000/svg">
<path fill-rule="evenodd" clip-rule="evenodd" d="M14.9737 5.2C14.2895 4.42353 13.4 4 12.3737 4C11.6211 4 10.9368 4.21176 10.3211 4.70588C10.0474 4.91765 9.70526 5.27059 9.5 5.62353C9.22632 5.27059 8.95263 4.98824 8.67895 4.70588C8.06316 4.21176 7.37895 4 6.62632 4C5.6 4 4.71053 4.42353 4.02632 5.2C3.34211 5.90588 3 6.96471 3 8.02353C3 9.15294 3.41053 10.2118 4.3 11.3412C5.12105 12.3294 6.21579 13.3176 7.51579 14.5176C7.99474 14.8706 8.47368 15.2941 9.02105 15.7882C9.15789 15.9294 9.36316 16 9.5 16C9.70526 16 9.84211 15.9294 9.97895 15.7882C10.5263 15.2941 11.0053 14.8706 11.4842 14.4471C12.7842 13.3176 13.9474 12.2588 14.7 11.2706C15.5895 10.1412 16 9.15294 16 7.95294C16 6.96471 15.6579 5.90588 14.9737 5.2Z" stroke="white" stroke-width="1.5"/>
</svg>
