<svg width="29" height="30" viewBox="0 0 29 30" fill="none" xmlns="http://www.w3.org/2000/svg">
<path fill-rule="evenodd" clip-rule="evenodd" d="M23.5385 6.3735C22.3572 5.07403 20.8215 4.36523 19.0495 4.36523C17.75 4.36523 16.5687 4.71963 15.5055 5.54657C15.0329 5.90096 14.4423 6.49163 14.0879 7.0823C13.6153 6.49163 13.1428 6.0191 12.6703 5.54657C11.6071 4.71963 10.4258 4.36523 9.12629 4.36523C7.35429 4.36523 5.81856 5.07403 4.63723 6.3735C3.4559 7.55483 2.86523 9.32682 2.86523 11.0988C2.86523 12.9889 3.57403 14.7609 5.10976 16.6511C6.52736 18.3049 8.41749 19.9588 10.662 21.9671C11.4889 22.5577 12.3159 23.2665 13.2609 24.0935C13.4972 24.3297 13.8516 24.4479 14.0879 24.4479C14.4423 24.4479 14.6785 24.3297 14.9148 24.0935C15.8599 23.2665 16.6868 22.5577 17.5137 21.8489C19.7583 19.9588 21.7665 18.1868 23.066 16.5329C24.6017 14.6428 25.3105 12.9889 25.3105 10.9807C25.3105 9.32682 24.7199 7.55483 23.5385 6.3735Z" stroke="white" stroke-width="1.5"/>
</svg>
