<svg width="49" height="49" viewBox="0 0 49 49" fill="none" xmlns="http://www.w3.org/2000/svg">
<mask id="mask0_4021_1764" style="mask-type:alpha" maskUnits="userSpaceOnUse" x="11" y="11" width="27" height="27">
<path fill-rule="evenodd" clip-rule="evenodd" d="M11.6918 15.5276C12.9071 13.9094 15.5402 11.7853 17.4644 11.1786C19.7937 10.4707 21.3128 11.9879 22.6294 13.6061C23.7433 14.9209 24.5536 17.045 23.5409 18.6633C22.832 19.877 21.7179 20.7873 20.5027 21.5963C20.4016 21.7987 20.8066 22.8101 20.9078 23.0122C21.5154 24.0236 22.3255 25.035 23.1358 25.8442C23.9461 26.6535 24.9588 27.5636 25.9715 28.0694C26.2754 28.1704 27.1868 28.5752 27.4907 28.4739C28.1996 27.2601 29.2123 26.1477 30.3264 25.4397C31.9468 24.4283 34.1748 25.2373 35.4913 26.35C37.0105 27.6648 38.5295 29.2831 37.8206 31.5082C37.2129 33.4299 35.0863 36.0595 33.4659 37.2733C29.4148 40.3074 21.3133 33.0254 18.6799 30.3957C15.9456 27.665 8.75502 19.6748 11.6923 15.5281L11.6918 15.5276ZM12.9071 16.4379C13.9198 15.022 16.2491 13.1003 17.8695 12.5945C19.591 12.0887 20.7052 13.5048 21.5153 14.5162C22.4268 15.5276 22.8318 17.0448 22.3255 17.9551C21.8191 18.7643 20.9078 19.5734 19.7937 20.2813C16.3503 22.6075 26.4778 32.6206 28.7058 29.2828C29.4147 28.069 30.225 27.1587 31.1365 26.6531C31.9468 26.1473 33.4657 26.5521 34.4784 27.4624C35.4911 28.2716 37.0103 29.4851 36.4026 31.1034C35.8962 32.7216 33.972 35.0478 32.6554 36.0592C27.8955 39.5992 9.46404 21.0907 12.9073 16.4379L12.9071 16.4379Z" fill="black"/>
</mask>
<g mask="url(#mask0_4021_1764)">
<rect x="11" y="11" width="27" height="27" fill="white"/>
</g>
</svg>
