<svg width="54" height="54" viewBox="0 0 54 54" fill="none" xmlns="http://www.w3.org/2000/svg">
<path d="M5.41544 7.33226C0.333681 11.6453 2.1067 17.3126 3.27941 20.188C8.13423 28.3214 11.7146 32.9363 15.9698 37.1314C20.192 41.3599 25.8284 45.9768 33.9824 50.7697C36.8599 51.9189 42.5265 53.644 46.7784 48.5064C48.3777 46.574 50.6357 42.9805 50.6357 42.9805C50.6357 42.9805 53.9511 37.9717 50.2452 34.1475C48.1878 32.0245 45.695 30.2182 45.0424 30.0936C43.8648 29.5819 41.414 28.5383 38.788 30.1526C36.8446 31.3472 36.4499 32.1492 34.9158 34.1102C33.3706 36.0853 31.8182 37.2763 28.2782 34.957C26.4826 33.7806 24.348 31.8491 22.6151 30.0737C20.829 28.3524 20.2867 27.5506 19.097 25.7606C16.7516 22.2318 17.9243 20.6635 19.8788 19.0951C21.8194 17.538 22.6152 17.1346 23.7878 15.1741C25.3725 12.525 24.3091 10.0767 23.7878 8.9004C23.6575 8.24695 21.8333 5.76366 19.6975 3.72006C15.8503 0.0390171 10.8881 3.41141 10.8881 3.41141C10.8881 3.41141 7.32683 5.71002 5.41544 7.33226Z" stroke="white" stroke-width="3"/>
</svg>
