<svg width="100" height="100" viewBox="0 0 100 100" fill="none" xmlns="http://www.w3.org/2000/svg">
<rect width="100" height="100" fill="#1B8ADB"/>
<path d="M76.1645 25.4112L22.7895 46.2467C19.1875 47.5696 19.1875 49.8847 22.1346 50.5461L35.5602 54.8455L40.7995 70.7202C41.4544 72.3738 41.1269 73.0353 42.7642 73.0353C44.074 73.0353 44.7289 72.3738 45.3838 71.7124C45.7113 71.3816 48.6583 68.4051 51.9329 65.0979L65.6859 75.3503C68.3056 76.6732 69.9428 76.0118 70.5977 73.0353L79.7664 29.7106C80.7488 26.0726 78.4566 24.0883 76.1645 25.4112ZM69.2879 35.3329L43.7465 58.8142L42.7642 69.728L37.5249 53.8533L67.6507 34.6714C68.9605 33.6793 70.2703 34.3407 69.2879 35.3329Z" fill="white"/>
</svg>
