<svg width="20" height="20" viewBox="0 0 20 20" fill="none" xmlns="http://www.w3.org/2000/svg">
<g clip-path="url(#clip0_2224_16290)">
<path d="M13.5 10.5H6.5C5.39543 10.5 4.5 11.3954 4.5 12.5V13.5C4.5 14.6046 5.39543 15.5 6.5 15.5H13.5C14.6046 15.5 15.5 14.6046 15.5 13.5V12.5C15.5 11.3954 14.6046 10.5 13.5 10.5Z" fill="#055A90"/>
<path d="M13.5 4.5H6.5C5.39543 4.5 4.5 5.39543 4.5 6.5V7.5C4.5 8.60457 5.39543 9.5 6.5 9.5H13.5C14.6046 9.5 15.5 8.60457 15.5 7.5V6.5C15.5 5.39543 14.6046 4.5 13.5 4.5Z" fill="#055A90"/>
</g>
<defs>
<clipPath id="clip0_2224_16290">
<rect width="11" height="11" fill="white" transform="translate(4.5 4.5)"/>
</clipPath>
</defs>
</svg>
