<svg width="20" height="20" viewBox="0 0 20 20" fill="none" xmlns="http://www.w3.org/2000/svg">
<g clip-path="url(#clip0_2224_16275)">
<path d="M7.5 4.5H6.5C5.39543 4.5 4.5 5.39543 4.5 6.5V7.5C4.5 8.60457 5.39543 9.5 6.5 9.5H7.5C8.60457 9.5 9.5 8.60457 9.5 7.5V6.5C9.5 5.39543 8.60457 4.5 7.5 4.5Z" fill="#CE1F18"/>
<path d="M7.5 10.5H6.5C5.39543 10.5 4.5 11.3954 4.5 12.5V13.5C4.5 14.6046 5.39543 15.5 6.5 15.5H7.5C8.60457 15.5 9.5 14.6046 9.5 13.5V12.5C9.5 11.3954 8.60457 10.5 7.5 10.5Z" fill="#CE1F18"/>
<path d="M13.5 10.5H12.5C11.3954 10.5 10.5 11.3954 10.5 12.5V13.5C10.5 14.6046 11.3954 15.5 12.5 15.5H13.5C14.6046 15.5 15.5 14.6046 15.5 13.5V12.5C15.5 11.3954 14.6046 10.5 13.5 10.5Z" fill="#CE1F18"/>
<path d="M13.5 4.5H12.5C11.3954 4.5 10.5 5.39543 10.5 6.5V7.5C10.5 8.60457 11.3954 9.5 12.5 9.5H13.5C14.6046 9.5 15.5 8.60457 15.5 7.5V6.5C15.5 5.39543 14.6046 4.5 13.5 4.5Z" fill="#CE1F18"/>
</g>
<defs>
<clipPath id="clip0_2224_16275">
<rect width="11" height="11" fill="white" transform="translate(4.5 4.5)"/>
</clipPath>
</defs>
</svg>
