<svg width="20" height="20" viewBox="0 0 20 20" fill="none" xmlns="http://www.w3.org/2000/svg">
<g clip-path="url(#clip0_2224_16283)">
<path d="M16.5 10.5H9.5C8.39543 10.5 7.5 11.3954 7.5 12.5V13.5C7.5 14.6046 8.39543 15.5 9.5 15.5H16.5C17.6046 15.5 18.5 14.6046 18.5 13.5V12.5C18.5 11.3954 17.6046 10.5 16.5 10.5Z" fill="#055A90"/>
<path d="M4.5 10.5H3.5C2.39543 10.5 1.5 11.3954 1.5 12.5V13.5C1.5 14.6046 2.39543 15.5 3.5 15.5H4.5C5.60457 15.5 6.5 14.6046 6.5 13.5V12.5C6.5 11.3954 5.60457 10.5 4.5 10.5Z" fill="#055A90"/>
<path d="M4.5 4.5H3.5C2.39543 4.5 1.5 5.39543 1.5 6.5V7.5C1.5 8.60457 2.39543 9.5 3.5 9.5H4.5C5.60457 9.5 6.5 8.60457 6.5 7.5V6.5C6.5 5.39543 5.60457 4.5 4.5 4.5Z" fill="#055A90"/>
<path d="M16.5 4.5H9.5C8.39543 4.5 7.5 5.39543 7.5 6.5V7.5C7.5 8.60457 8.39543 9.5 9.5 9.5H16.5C17.6046 9.5 18.5 8.60457 18.5 7.5V6.5C18.5 5.39543 17.6046 4.5 16.5 4.5Z" fill="#055A90"/>
</g>
<defs>
<clipPath id="clip0_2224_16283">
<rect width="17" height="11" fill="white" transform="translate(1.5 4.5)"/>
</clipPath>
</defs>
</svg>
