<svg width="100" height="100" viewBox="0 0 100 100" fill="none" xmlns="http://www.w3.org/2000/svg">
<rect width="100" height="100" fill="#219E16"/>
<path d="M64.9625 56.5188C64.1313 56.125 60.15 54.1563 59.4063 53.85C58.6625 53.5438 58.1375 53.4563 57.5688 54.2875C57 55.1188 55.4688 56.9125 54.9875 57.4813C54.5063 58.05 54.0688 58.0938 53.2375 57.4813C50.85 56.5231 48.6449 55.1616 46.7188 53.4563C44.9751 51.8146 43.4989 49.9104 42.3438 47.8125C41.8625 47.025 42.3438 46.5875 42.6938 46.15C43.0438 45.7125 43.4813 45.2313 43.9188 44.75C44.2387 44.3338 44.5034 43.878 44.7063 43.3938C44.8148 43.1686 44.8712 42.9219 44.8712 42.6719C44.8712 42.422 44.8148 42.1752 44.7063 41.95C44.7063 41.5563 42.8688 37.575 42.1688 35.9563C41.4688 34.3375 40.8563 34.5563 40.375 34.5563H38.625C37.7914 34.5888 37.0047 34.9507 36.4375 35.5625C35.5221 36.4361 34.797 37.4893 34.3076 38.6563C33.8183 39.8232 33.5752 41.0786 33.5938 42.3438C33.8175 45.45 34.9597 48.4195 36.875 50.875C40.3898 56.0963 45.1983 60.317 50.8313 63.125C52.7563 63.9563 54.2438 64.4375 55.425 64.8313C57.0838 65.3327 58.8371 65.4375 60.5438 65.1375C61.6773 64.9076 62.7515 64.4472 63.6998 63.7849C64.648 63.1226 65.4501 62.2726 66.0563 61.2875C66.5607 60.071 66.727 58.7408 66.5375 57.4375C66.3188 57.1313 65.7938 56.9125 64.9625 56.5188Z" fill="white"/>
<path d="M73.1436 26.7251C70.1179 23.6709 66.5113 21.2534 62.5364 19.6154C58.5615 17.9773 54.2988 17.1519 49.9998 17.1876C44.3048 17.2174 38.7174 18.7409 33.7954 21.6059C28.8735 24.4708 24.7894 28.577 21.951 33.5143C19.1126 38.4516 17.6192 44.0473 17.6201 49.7423C17.621 55.4373 19.1161 61.0325 21.9561 65.9689L17.5811 82.8126L34.8186 78.4376C39.584 81.0307 44.9246 82.3847 50.3498 82.3751H49.9998C56.4657 82.4173 62.7976 80.5327 68.1882 76.9617C73.5787 73.3908 77.7835 68.2952 80.2664 62.3249C82.7494 56.3546 83.3979 49.7801 82.1293 43.4397C80.8607 37.0994 77.7325 31.2805 73.1436 26.7251ZM49.9998 76.7751C45.146 76.779 40.3824 75.4633 36.2186 72.9689L35.2561 72.4001L25.0186 75.0689L27.7311 65.0939L27.1186 64.0876C23.6245 58.4607 22.3175 51.7469 23.4455 45.2201C24.5736 38.6933 28.0581 32.8076 33.2382 28.6798C38.4182 24.552 44.9332 22.4692 51.5471 22.8267C58.161 23.1841 64.4136 25.9569 69.1186 30.6189C71.6409 33.1209 73.6401 36.0999 74.9996 39.3823C76.3592 42.6647 77.0518 46.1849 77.0373 49.7376C77.0257 56.9049 74.1734 63.7752 69.1054 68.8433C64.0374 73.9113 57.167 76.7636 49.9998 76.7751Z" fill="white"/>
</svg>
