<svg width="100" height="100" viewBox="0 0 100 100" fill="none" xmlns="http://www.w3.org/2000/svg">
<rect width="100" height="100" fill="#F0F0F0"/>
<path fill-rule="evenodd" clip-rule="evenodd" d="M36.8891 23.146C40.914 20.4462 45.6503 19.0031 50.4968 19C55.3452 19.0026 60.0834 20.4463 64.1095 23.1477C68.1413 25.8534 71.281 29.6931 73.1323 34.1818C74.9864 38.6753 75.4709 43.6165 74.525 48.3846C73.5808 53.15 71.2474 57.5295 67.8187 60.9712C66.6618 62.1317 65.0966 63.4269 63.404 64.8276C58.6071 68.7972 52.7859 73.6143 52.3292 78.6149C52.2391 79.6256 51.5041 80.4531 50.4968 80.4531C49.4895 80.4531 48.757 79.6256 48.6644 78.6149C48.2074 73.6138 42.3809 68.7904 37.5805 64.8165C35.8871 63.4146 34.3214 62.1185 33.1641 60.9575C29.7394 57.5146 27.4098 53.1354 26.4686 48.3713C25.5258 43.6045 26.0123 38.6655 27.8671 34.1744C29.7191 29.6878 32.8585 25.8503 36.8891 23.146ZM44.3897 49.5223C46.0096 51.1417 48.2063 52.0516 50.4968 52.0518C52.495 52.0518 54.4313 51.3589 55.9758 50.0913C57.5204 48.8237 58.5776 47.0597 58.9674 45.1C59.3572 43.1402 59.0554 41.106 58.1135 39.3438C57.1715 37.5816 55.6477 36.2005 53.8017 35.4359C51.9556 34.6713 49.9016 34.5704 47.9895 35.1505C46.0774 35.7305 44.4256 36.9556 43.3155 38.617C42.2054 40.2784 41.7057 42.2733 41.9016 44.2618C42.0975 46.2503 42.9768 48.1094 44.3897 49.5223Z" fill="#FF413A"/>
</svg>
